<?xml version="1.0" encoding="UTF-8"?>
<svg version="1.1" xmlns="http://www.w3.org/2000/svg" width="226" height="224">
<path d="M0 0 C74.58 0 149.16 0 226 0 C226 73.92 226 147.84 226 224 C151.42 224 76.84 224 0 224 C0 150.08 0 76.16 0 0 Z " fill="#FEFEFE" transform="translate(0,0)"/>
<path d="M0 0 C11.48216122 8.87493364 20.83622602 20.22893072 23 35 C23.91894589 51.13456918 21.63492048 65.61484795 10.75 78.1875 C1.0271941 88.39004961 -10.20959582 95.5063964 -24.671875 96.16796875 C-41.03828435 96.35585865 -53.58914515 93.05246196 -65.75 81.33984375 C-77.43107586 69.19233604 -81.59511522 55.91624707 -81.2734375 39.171875 C-80.62621031 25.18920443 -73.32725669 13.45046596 -63.390625 4.00390625 C-45.63896281 -10.87616352 -19.59621622 -12.60428627 0 0 Z " fill="#010101" transform="translate(142,68)"/>
<path d="M0 0 C2.31 0 4.62 0 7 0 C7 4.95 7 9.9 7 15 C16.9 15 26.8 15 37 15 C37 10.05 37 5.1 37 0 C39.31 0 41.62 0 44 0 C44 15.84 44 31.68 44 48 C41.69 48 39.38 48 37 48 C37 43.05 37 38.1 37 33 C27.1 33 17.2 33 7 33 C7 37.95 7 42.9 7 48 C4.69 48 2.38 48 0 48 C0 32.16 0 16.32 0 0 Z " fill="#F6F6F6" transform="translate(91,88)"/>
<path d="M0 0 C9.9 0 19.8 0 30 0 C30 2.64 30 5.28 30 8 C20.1 8 10.2 8 0 8 C0 5.36 0 2.72 0 0 Z " fill="#121212" transform="translate(98,108)"/>
</svg>
